<svg width="48" height="28" viewBox="0 0 48 28" fill="none" xmlns="http://www.w3.org/2000/svg">
<path d="M37.121 6.12755C36.6064 6.12755 36.0896 6.16573 35.5834 6.23996C33.0145 2.36485 28.6657 0 23.9979 0C19.3302 0 14.9794 2.36708 12.4125 6.23996C11.8979 6.1636 11.3811 6.12755 10.8749 6.12755C4.88482 6.12755 0 11.0292 0 17.0638C0 23.0958 4.87419 28 10.8749 28H22.5932V19.5159H19.7248L24 15.0278L28.2752 19.5159H25.4068V28H37.1251C43.1152 28 48 23.0983 48 17.0638C48 11.0318 43.1258 6.12755 37.1251 6.12755H37.121Z" fill="#FE4A6E" fill-opacity="0.5"/>
</svg>
