<svg xmlns="http://www.w3.org/2000/svg" width="19.292" height="25.724" viewBox="0 0 19.292 25.724">
  <path id="Icon_awesome-award" data-name="Icon awesome-award" d="M4.879,18.218c-.437-.437-.209-.313-1.262-.6a3.625,3.625,0,0,1-1.278-.669L.06,22.543a.8.8,0,0,0,.775,1.107l2.647-.1L5.3,25.472a.8.8,0,0,0,1.328-.249l2.615-6.412a3.605,3.605,0,0,1-4.367-.592Zm14.353,4.324-2.279-5.589a3.617,3.617,0,0,1-1.278.669c-1.059.283-.826.16-1.262.6a3.606,3.606,0,0,1-4.367.592l2.615,6.412a.8.8,0,0,0,1.328.249l1.821-1.923,2.647.1a.8.8,0,0,0,.775-1.107Zm-6.019-5.461c.768-.781.856-.714,1.949-1.012a2.042,2.042,0,0,0,1.43-1.456,3.229,3.229,0,0,1,1.3-2.3,2.084,2.084,0,0,0,.524-1.989,3.267,3.267,0,0,1,0-2.654A2.084,2.084,0,0,0,17.9,5.684a3.23,3.23,0,0,1-1.3-2.3,2.042,2.042,0,0,0-1.43-1.456A3.149,3.149,0,0,1,12.9.6,2,2,0,0,0,10.95.07a3.109,3.109,0,0,1-2.607,0A2,2,0,0,0,6.389.6,3.147,3.147,0,0,1,4.131,1.93,2.042,2.042,0,0,0,2.7,3.386a3.228,3.228,0,0,1-1.3,2.3A2.083,2.083,0,0,0,.873,7.673a3.266,3.266,0,0,1,0,2.654A2.085,2.085,0,0,0,1.4,12.315a3.229,3.229,0,0,1,1.3,2.3,2.042,2.042,0,0,0,1.43,1.456c1.124.306,1.208.258,1.948,1.012a2,2,0,0,0,2.5.292,1.993,1.993,0,0,1,2.137,0A2,2,0,0,0,13.213,17.082ZM4.906,8.84a4.74,4.74,0,1,1,4.74,4.824A4.783,4.783,0,0,1,4.906,8.84Z" transform="translate(0 0.001)" fill="#fff"/>
</svg>
