<svg xmlns="http://www.w3.org/2000/svg" width="29.648" height="20.754" viewBox="0 0 29.648 20.754">
  <path id="Icon_awesome-users" data-name="Icon awesome-users" d="M4.447,11.144A2.965,2.965,0,1,0,1.482,8.18,2.968,2.968,0,0,0,4.447,11.144Zm20.754,0A2.965,2.965,0,1,0,22.236,8.18,2.968,2.968,0,0,0,25.2,11.144Zm1.482,1.482H23.718a2.956,2.956,0,0,0-2.089.862,6.776,6.776,0,0,1,3.479,5.068h3.057a1.481,1.481,0,0,0,1.482-1.482V15.592A2.968,2.968,0,0,0,26.683,12.627Zm-11.859,0A5.188,5.188,0,1,0,9.636,7.438,5.186,5.186,0,0,0,14.824,12.627Zm3.558,1.482H18a7.163,7.163,0,0,1-6.347,0h-.384A5.338,5.338,0,0,0,5.93,19.446V20.78A2.224,2.224,0,0,0,8.153,23H21.495a2.224,2.224,0,0,0,2.224-2.224V19.446A5.338,5.338,0,0,0,18.382,14.109ZM8.019,13.488a2.956,2.956,0,0,0-2.089-.862H2.965A2.968,2.968,0,0,0,0,15.592v1.482a1.481,1.481,0,0,0,1.482,1.482H4.535A6.793,6.793,0,0,1,8.019,13.488Z" transform="translate(0 -2.25)" fill="#fff"/>
</svg>
