<svg xmlns="http://www.w3.org/2000/svg" width="22.939" height="22.945" viewBox="0 0 22.939 22.945">
  <g id="Icon_ionic-ios-timer" data-name="Icon ionic-ios-timer" transform="translate(-3.938 -3.938)">
    <path id="Path_232" data-name="Path 232" d="M15.41,26.883A11.473,11.473,0,0,1,7.448,7.15.921.921,0,0,1,8.727,8.475a9.628,9.628,0,1,0,7.6-2.65V9.416a.924.924,0,1,1-1.847,0V4.861a.923.923,0,0,1,.924-.924,11.473,11.473,0,0,1,.006,22.945Z" transform="translate(0 0)" fill="#fff"/>
    <path id="Path_233" data-name="Path 233" d="M12.162,11.359l5.708,4.1a1.727,1.727,0,0,1-2.008,2.811,1.668,1.668,0,0,1-.4-.4l-4.1-5.708a.575.575,0,0,1,.8-.8Z" transform="translate(-1.347 -1.347)" fill="#fff"/>
  </g>
</svg>
